<?xml version="1.0" encoding="iso-8859-1"?>
<!-- Generator: Adobe Illustrator 17.1.0, SVG Export Plug-In . SVG Version: 6.00 Build 0)  -->
<!DOCTYPE svg PUBLIC "-//W3C//DTD SVG 1.1//EN" "http://www.w3.org/Graphics/SVG/1.1/DTD/svg11.dtd">
<svg xmlns="http://www.w3.org/2000/svg" xmlns:xlink="http://www.w3.org/1999/xlink" version="1.1" id="Capa_1" x="0px" y="0px" viewBox="0 0 391.875 391.875" style="enable-background:new 0 0 391.875 391.875;" xml:space="preserve" width="512px" height="512px">
<g>
	<path d="M352.69,39.185c-52.247-52.246-137.258-52.246-189.505,0l-124,124c-52.246,52.247-52.246,137.259,0,189.506   c26.124,26.123,60.438,39.185,94.752,39.185c4.637,0,9.269-0.238,13.885-0.715c0.486-0.018,0.964-0.07,1.431-0.155   c29.045-3.314,57.207-16.085,79.436-38.315l124-124C404.936,176.443,404.936,91.432,352.69,39.185z M214.547,338.548   c-18.347,18.348-41.848,29.671-67.238,32.619c-55.439-0.077-100.52-45.203-100.52-100.66c0-43.301,35.228-78.528,78.528-78.528   c33.538,0,60.822,27.285,60.822,60.822c0,25.728-20.931,46.658-46.658,46.658c-19.479,0-35.327-15.848-35.327-35.326   c0-14.481,11.781-26.262,26.261-26.262c10.481,0,19.009,8.527,19.009,19.009c0,5.522,4.477,10,10,10c5.523,0,10-4.478,10-10   c0-21.51-17.499-39.009-39.009-39.009c-25.508,0-46.261,20.753-46.261,46.262c0,30.507,24.819,55.326,55.327,55.326   c36.755,0,66.658-29.902,66.658-66.658c0-44.565-36.257-80.822-80.822-80.822c-54.329,0-98.528,44.199-98.528,98.528   c0,15.825,3.062,30.948,8.626,44.808c-25.399-43.632-19.428-100.647,17.913-137.987c44.448-44.449,116.771-44.449,161.22,0   C258.996,221.775,258.996,294.1,214.547,338.548z M338.547,214.548l-74.245,74.245c10.267-43.701-1.603-91.599-35.612-125.608   C202.566,137.061,168.252,124,133.938,124c-10.359,0-20.721,1.191-30.855,3.571l74.245-74.244   c21.531-21.532,50.159-33.39,80.61-33.39c30.451,0,59.079,11.857,80.61,33.39C382.996,97.775,382.996,170.1,338.547,214.548z" fill="#FFFFFF"/>
	<path d="M339.045,118.145c-0.795-2.693-2.591-4.914-5.058-6.255c-2.46-1.337-5.294-1.638-7.979-0.847   c-2.699,0.795-4.924,2.595-6.257,5.053c-1.341,2.463-1.642,5.302-0.849,7.991c0.795,2.693,2.591,4.914,5.059,6.255   c1.587,0.862,3.302,1.271,4.994,1.271c3.725,0,7.339-1.983,9.241-5.478C339.537,123.674,339.838,120.835,339.045,118.145z" fill="#FFFFFF"/>
	<path d="M326.414,156.152c-5.083-2.761-11.468-0.873-14.235,4.207c-1.341,2.464-1.642,5.303-0.848,7.993   c0.795,2.692,2.591,4.913,5.058,6.253c1.586,0.861,3.3,1.271,4.991,1.271c3.721,0,7.332-1.979,9.236-5.463   c0.005-0.01,0.011-0.02,0.016-0.028C333.387,165.303,331.498,158.92,326.414,156.152z" fill="#FFFFFF"/>
</g>
<g>
</g>
<g>
</g>
<g>
</g>
<g>
</g>
<g>
</g>
<g>
</g>
<g>
</g>
<g>
</g>
<g>
</g>
<g>
</g>
<g>
</g>
<g>
</g>
<g>
</g>
<g>
</g>
<g>
</g>
</svg>
