<?xml version="1.0" encoding="iso-8859-1"?>
<svg xmlns="http://www.w3.org/2000/svg" xmlns:xlink="http://www.w3.org/1999/xlink" version="1.1" viewBox="0 0 470 470" enable-background="new 0 0 470 470" width="512px" height="512px">
  <g>
    <path d="m352.919,117.314c-1.415-1.479-3.373-2.314-5.419-2.314h-90v-62.5c0-4.136 3.364-7.5 7.5-7.5h75c4.142,0 7.5-3.357 7.5-7.5v-30c0-4.143-3.358-7.5-7.5-7.5h-75c-28.949,0-52.5,23.552-52.5,52.5v62.5h-90c-2.046,0-4.004,0.836-5.419,2.314-1.415,1.479-2.164,3.472-2.074,5.516l10.581,239.838c0.183,4.139 3.703,7.345 7.823,7.163 4.138-0.183 7.345-3.686 7.162-7.824l-10.235-232.007h209.323l-14.338,325h-180.647l-2.78-63.018c-0.182-4.139-3.676-7.326-7.823-7.163-4.138,0.183-7.345,3.686-7.162,7.823l3.097,70.188c0.177,4.01 3.479,7.17 7.493,7.17h195c4.014,0 7.316-3.16 7.493-7.17l15-340c0.089-2.044-0.66-4.036-2.075-5.516zm-125.419-64.814c0-20.678 16.822-37.5 37.5-37.5h67.5v15h-67.5c-12.407,0-22.5,10.094-22.5,22.5v62.5h-15v-62.5z" fill="#FFFFFF"/>
    <circle cx="279.71" cy="305" r="7.5" fill="#FFFFFF"/>
    <circle cx="191.834" cy="375" r="7.5" fill="#FFFFFF"/>
    <path d="m220,145c-4.142,0-7.5,3.357-7.5,7.5v29.632c-0.606,0.415-1.196,0.827-1.767,1.227-4.667,3.274-8.038,5.64-15.647,5.64s-10.981-2.365-15.647-5.64c-5.309-3.725-11.917-8.36-24.263-8.36-2.046,0-4.004,0.836-5.419,2.314-1.415,1.479-2.164,3.472-2.074,5.516l11.03,250.001c0.177,4.01 3.479,7.17 7.493,7.17h137.588c4.014,0 7.316-3.16 7.493-7.17l11.03-250c0.09-2.044-0.659-4.036-2.074-5.516-1.415-1.479-3.373-2.314-5.419-2.314-12.347,0-18.955,4.635-24.264,8.359-4.667,3.274-8.04,5.64-15.65,5.64-7.61,0-10.982-2.365-15.65-5.64-0.568-0.399-1.156-0.809-1.759-1.221v-29.638c0-4.143-3.358-7.5-7.5-7.5s-7.5,3.357-7.5,7.5v23.15c-2.249-0.407-4.725-0.651-7.505-0.651-2.776,0-5.249,0.244-7.495,0.65v-23.149c-0.001-4.143-3.359-7.5-7.501-7.5zm-56.934,46.19c2.85,1.006 5.092,2.579 7.757,4.448 5.309,3.725 11.917,8.36 24.263,8.36 7.662,0 13.111-1.786 17.414-4.031v225.033h-39.118l-10.316-233.81zm111.843,12.809c12.347,0 18.955-4.635 24.265-8.359 2.665-1.87 4.908-3.443 7.759-4.449l-10.315,233.809h-39.118v-225.029c4.302,2.243 9.75,4.028 17.409,4.028zm-39.914-14c3.073,0 5.45,0.391 7.505,1.066v233.935h-15v-233.937c2.053-0.674 4.427-1.064 7.495-1.064z" fill="#FFFFFF"/>
  </g>
</svg>
