<svg xmlns="http://www.w3.org/2000/svg" viewBox="0 0 391.875 391.875" width="512" height="512"><g fill="#FFF"><path d="M352.69 39.185c-52.247-52.246-137.258-52.246-189.505 0l-124 124c-52.246 52.247-52.246 137.259 0 189.506 26.124 26.123 60.438 39.185 94.752 39.185 4.637 0 9.269-.238 13.885-.715.486-.018.964-.07 1.431-.155 29.045-3.314 57.207-16.085 79.436-38.315l124-124c52.247-52.248 52.247-137.259.001-189.506zM214.547 338.548c-18.347 18.348-41.848 29.671-67.238 32.619-55.439-.077-100.52-45.203-100.52-100.66 0-43.301 35.228-78.528 78.528-78.528 33.538 0 60.822 27.285 60.822 60.822 0 25.728-20.931 46.658-46.658 46.658-19.479 0-35.327-15.848-35.327-35.326 0-14.481 11.781-26.262 26.261-26.262 10.481 0 19.009 8.527 19.009 19.009 0 5.522 4.477 10 10 10s10-4.478 10-10c0-21.51-17.499-39.009-39.009-39.009-25.508 0-46.261 20.753-46.261 46.262 0 30.507 24.819 55.326 55.327 55.326 36.755 0 66.658-29.902 66.658-66.658 0-44.565-36.257-80.822-80.822-80.822-54.329 0-98.528 44.199-98.528 98.528 0 15.825 3.062 30.948 8.626 44.808-25.399-43.632-19.428-100.647 17.913-137.987 44.448-44.449 116.771-44.449 161.22 0 44.448 44.447 44.448 116.772-.001 161.22zm124-124l-74.245 74.245c10.267-43.701-1.603-91.599-35.612-125.608C202.566 137.061 168.252 124 133.938 124a135.001 135.001 0 0 0-30.855 3.571l74.245-74.244c21.531-21.532 50.159-33.39 80.61-33.39s59.079 11.857 80.61 33.39c44.448 44.448 44.448 116.773-.001 161.221z"/><path d="M339.045 118.145a10.434 10.434 0 0 0-5.058-6.255 10.43 10.43 0 0 0-7.979-.847 10.422 10.422 0 0 0-6.257 5.053 10.433 10.433 0 0 0-.849 7.991 10.432 10.432 0 0 0 5.059 6.255 10.437 10.437 0 0 0 4.994 1.271c3.725 0 7.339-1.983 9.241-5.478a10.43 10.43 0 0 0 .849-7.99zm-12.631 38.007c-5.083-2.761-11.468-.873-14.235 4.207a10.433 10.433 0 0 0-.848 7.993 10.43 10.43 0 0 0 5.058 6.253c1.586.861 3.3 1.271 4.991 1.271 3.721 0 7.332-1.979 9.236-5.463a.349.349 0 0 1 .016-.028c2.755-5.082.866-11.465-4.218-14.233z"/></g></svg>