<svg xmlns="http://www.w3.org/2000/svg" viewBox="0 0 447.963 447.963" width="512" height="512"><g fill="#FFF"><path d="M396.471 37.21a6.998 6.998 0 0 0-3.793-3.782C337.665 10.733 279.836-.502 220.83.017 163.832.525 108.128 11.929 55.265 33.915a6.998 6.998 0 0 0-3.774 9.151l166.604 400.585a7.002 7.002 0 0 0 6.463 4.312h.01a7 7 0 0 0 6.461-4.33l165.45-401.064a7.003 7.003 0 0 0-.008-5.359zM165.398 280.489c2.81-.51 5.67-.775 8.562-.775 26.308 0 47.71 21.398 47.71 47.7 0 15.9-7.686 30.333-20.461 39.179l-35.811-86.104zm59.134 142.182l-17.855-42.932c17.801-11.2 28.994-31.081 28.994-52.324 0-34.021-27.683-61.7-61.71-61.7-4.758 0-9.454.552-14.033 1.62L80.855 77.213c92.614-33.058 193.689-33.115 286.254-.16l-21.663 52.513c-14.536-13.552-31.615-24.413-49.948-31.67-8.567-3.392-17.942-3.246-26.399.412-8.458 3.658-14.984 10.392-18.376 18.959s-3.246 17.943.412 26.4c3.658 8.458 10.392 14.984 18.959 18.376 19.326 7.652 35.366 21.759 45.496 39.897l-91.058 220.731zm115.175-279.195l-17.566 42.58a104.088 104.088 0 0 0-46.895-37.03 20.358 20.358 0 0 1-11.263-10.917 20.363 20.363 0 0 1-.244-15.688 20.353 20.353 0 0 1 10.916-11.263 20.363 20.363 0 0 1 15.688-.244c18.345 7.26 35.323 18.475 49.364 32.562zM372.452 64.1c-96.006-34.351-200.921-34.29-296.979.174l-8.347-20.069c49.252-19.565 100.965-29.718 153.828-30.188 54.833-.488 108.572 9.512 159.892 29.734L372.452 64.1z"/><path d="M201.062 157.874a18.629 18.629 0 0 0 17.465-2.144c5.058-3.554 7.992-9.348 7.849-15.498-.46-19.743-12.659-37.104-31.078-44.23-18.419-7.127-39.125-2.495-52.753 11.797-4.246 4.452-5.975 10.713-4.626 16.746a18.63 18.63 0 0 0 11.474 13.338l2.145.83-5.684 14.691a7 7 0 0 0 4.003 9.054l34.325 13.28c.83.321 1.684.474 2.523.474a7 7 0 0 0 6.53-4.477l5.685-14.69 2.142.829zm-8.975-16.286a7.004 7.004 0 0 0-3.698 3.877l-5.685 14.69-21.269-8.229 5.684-14.691a7 7 0 0 0-4.002-9.054l-8.673-3.355c-2.091-.81-2.698-2.604-2.862-3.337-.195-.871-.312-2.554 1.096-4.029 9.705-10.179 24.452-13.476 37.569-8.401 13.117 5.075 21.805 17.439 22.133 31.5.048 2.038-1.171 3.204-1.901 3.717-.616.433-2.271 1.354-4.363.542l-8.672-3.355a7 7 0 0 0-5.357.125zm78.994 77.669l1.899-1.296a18.633 18.633 0 0 0 8.135-15.602c-.06-6.182-3.169-11.884-8.317-15.252-16.523-10.814-37.741-10.608-54.055.524-16.312 11.134-24.236 30.816-20.188 50.146 1.261 6.021 5.438 10.995 11.172 13.305a18.63 18.63 0 0 0 17.493-1.891l1.898-1.296 8.879 13.012a7.005 7.005 0 0 0 5.782 3.054 7.006 7.006 0 0 0 3.946-1.218l30.4-20.747a7.008 7.008 0 0 0 2.933-4.484 7.004 7.004 0 0 0-1.097-5.244l-8.88-13.011zm-5.993-12.86l-7.681 5.243a7 7 0 0 0-1.836 9.728l8.881 13.011-18.837 12.855-8.879-13.012a7.008 7.008 0 0 0-5.782-3.054 6.997 6.997 0 0 0-3.946 1.219l-7.681 5.241c-1.854 1.265-3.676.747-4.372.467-.828-.333-2.279-1.19-2.697-3.187a34.536 34.536 0 0 1 14.378-35.712c11.616-7.93 26.728-8.076 38.496-.374 1.706 1.116 1.976 2.78 1.984 3.673.008.753-.176 2.638-2.028 3.902zM225.791 99.741c10.477 0 18.999-8.522 18.999-18.999s-8.522-18.999-18.999-18.999-18.999 8.522-18.999 18.999 8.522 18.999 18.999 18.999zm0-23.998c2.757 0 4.999 2.242 4.999 4.999s-2.242 4.999-4.999 4.999-4.999-2.242-4.999-4.999 2.242-4.999 4.999-4.999zm-61.497 108.993c-10.477 0-18.999 8.523-18.999 19s8.522 18.999 18.999 18.999 18.999-8.522 18.999-18.999-8.523-19-18.999-19zm0 23.999c-2.757 0-4.999-2.242-4.999-4.999s2.242-5 4.999-5 4.999 2.243 4.999 5-2.242 4.999-4.999 4.999zm88.69 62.252c-10.477 0-18.999 8.522-18.999 18.999s8.522 18.999 18.999 18.999 19-8.522 19-18.999-8.523-18.999-19-18.999zm0 23.998c-2.757 0-4.999-2.242-4.999-4.999s2.242-4.999 4.999-4.999 5 2.242 5 4.999-2.243 4.999-5 4.999z"/></g></svg>