<svg xmlns="http://www.w3.org/2000/svg" viewBox="0 0 470 470" width="512" height="512"><g fill="#FFF"><path d="M352.919 117.314A7.499 7.499 0 0 0 347.5 115h-90V52.5c0-4.136 3.364-7.5 7.5-7.5h75a7.5 7.5 0 0 0 7.5-7.5v-30A7.5 7.5 0 0 0 340 0h-75c-28.949 0-52.5 23.552-52.5 52.5V115h-90a7.503 7.503 0 0 0-7.493 7.83l10.581 239.838c.183 4.139 3.703 7.345 7.823 7.163a7.5 7.5 0 0 0 7.162-7.824L130.338 130h209.323l-14.338 325H144.676l-2.78-63.018c-.182-4.139-3.676-7.326-7.823-7.163a7.5 7.5 0 0 0-7.162 7.823l3.097 70.188a7.5 7.5 0 0 0 7.493 7.17h195a7.5 7.5 0 0 0 7.493-7.17l15-340a7.509 7.509 0 0 0-2.075-5.516zM227.5 52.5c0-20.678 16.822-37.5 37.5-37.5h67.5v15H265c-12.407 0-22.5 10.094-22.5 22.5V115h-15V52.5z"/><circle cx="279.71" cy="305" r="7.5"/><circle cx="191.834" cy="375" r="7.5"/><path d="M220 145a7.5 7.5 0 0 0-7.5 7.5v29.632c-.606.415-1.196.827-1.767 1.227-4.667 3.274-8.038 5.64-15.647 5.64s-10.981-2.365-15.647-5.64c-5.309-3.725-11.917-8.36-24.263-8.36a7.503 7.503 0 0 0-7.493 7.83l11.03 250.001a7.5 7.5 0 0 0 7.493 7.17h137.588a7.5 7.5 0 0 0 7.493-7.17l11.03-250a7.499 7.499 0 0 0-7.493-7.83c-12.347 0-18.955 4.635-24.264 8.359-4.667 3.274-8.04 5.64-15.65 5.64-7.61 0-10.982-2.365-15.65-5.64-.568-.399-1.156-.809-1.759-1.221V152.5c0-4.143-3.358-7.5-7.5-7.5s-7.5 3.357-7.5 7.5v23.15a41.893 41.893 0 0 0-7.505-.651c-2.776 0-5.249.244-7.495.65V152.5A7.501 7.501 0 0 0 220 145zm-56.934 46.19c2.85 1.006 5.092 2.579 7.757 4.448 5.309 3.725 11.917 8.36 24.263 8.36 7.662 0 13.111-1.786 17.414-4.031V425h-39.118l-10.316-233.81zm111.843 12.809c12.347 0 18.955-4.635 24.265-8.359 2.665-1.87 4.908-3.443 7.759-4.449L296.618 425H257.5V199.971c4.302 2.243 9.75 4.028 17.409 4.028zm-39.914-14c3.073 0 5.45.391 7.505 1.066V425h-15V191.063c2.053-.674 4.427-1.064 7.495-1.064z"/></g></svg>